<svg xmlns="http://www.w3.org/2000/svg" xmlns:xlink="http://www.w3.org/1999/xlink" viewBox="0 0 212.05 131.57"><defs><style>.cls-1{fill:url(#未命名的渐变_118);}.cls-2{fill:url(#未命名的渐变_114);}.cls-3{fill:url(#橙色_黄色);}</style><linearGradient id="未命名的渐变_118" x1="87.2" y1="105.46" x2="148.33" y2="-0.43" gradientUnits="userSpaceOnUse"><stop offset="0" stop-color="#4c9fd8"/><stop offset="1" stop-color="#0055a7"/></linearGradient><linearGradient id="未命名的渐变_114" x1="120.73" y1="141.17" x2="187.48" y2="25.56" gradientUnits="userSpaceOnUse"><stop offset="0" stop-color="#32a2d3"/><stop offset="1" stop-color="#0061b0"/></linearGradient><linearGradient id="橙色_黄色" x1="-4.97" y1="-91.75" x2="198.27" y2="-91.75" gradientTransform="matrix(0.99, 0.1, -0.1, 0.99, -2.27, 132.02)" gradientUnits="userSpaceOnUse"><stop offset="0" stop-color="#fff21f"/><stop offset="0.01" stop-color="#ffef1c"/><stop offset="0.1" stop-color="#fddc0d"/><stop offset="0.19" stop-color="#fcd103"/><stop offset="0.28" stop-color="#fccd00"/><stop offset="0.67" stop-color="#f1942e"/><stop offset="0.89" stop-color="#ea652d"/><stop offset="1" stop-color="#e5352b"/></linearGradient></defs><title>资源 1LOGO</title><g id="图层_2" data-name="图层 2"><g id="图层_1-2" data-name="图层 1"><path class="cls-1" d="M202.38,30.78S100.76,84.26,36.58,76.24c0,0,0-26.74,32.09-37.44,0,0,34.76-77.55,101.62-13.37,0,0,10.69,0,18.72,5.35l-16,5.34H162.27S116.8-25.38,76.69,49.5c0,0-18.72,2.67-24.07,16C52.62,65.54,127.5,65.54,202.38,30.78Z"/><path class="cls-2" d="M210.4,52.17c13.37,80.22-59,65.66-59,65.66-37.28,33.28-74.95-4.37-74.95-4.37S162.27,78.91,210.4,38.8c0,0-85.57,80.22-107,74.87,0,0,24.07,18.72,42.79-10.69,0,0,59.67,21.22,53.9-42.87Z"/><path class="cls-3" d="M0,62.83S97.85,78.48,208,28.2C208,28.2,74,113.67,0,62.83Z"/></g></g></svg>